<?xml version="1.0" encoding="UTF-8" ?>
<!DOCTYPE svg PUBLIC "-//W3C//DTD SVG 1.1//EN" "http://www.w3.org/Graphics/SVG/1.1/DTD/svg11.dtd">
<svg width="29pt" height="26pt" viewBox="0 0 29 26" version="1.1" xmlns="http://www.w3.org/2000/svg">
<g id="#ffffffff">
<path fill="#ffffff" opacity="1.00" d=" M 0.00 0.00 L 3.26 0.00 C 2.96 0.40 2.36 1.20 2.06 1.60 C 5.76 5.16 9.32 8.85 13.02 12.41 C 9.49 16.18 5.75 19.75 2.08 23.39 C 2.37 23.82 2.95 24.67 3.24 25.09 C 7.11 21.51 10.73 17.68 14.46 13.97 C 18.15 17.57 21.79 21.22 25.38 24.92 C 25.81 24.63 26.66 24.04 27.09 23.75 C 23.51 19.85 19.59 16.29 15.98 12.43 C 19.67 8.89 23.19 5.18 26.89 1.65 C 26.65 1.24 26.17 0.41 25.94 0.00 L 29.00 0.00 L 29.00 26.00 L 0.00 26.00 L 0.00 0.00 Z" />
<path fill="#ffffff" opacity="1.00" d=" M 3.51 0.00 L 25.66 0.00 C 21.79 3.55 18.26 7.43 14.44 11.03 C 10.84 7.32 7.13 3.71 3.51 0.00 Z" />
</g>
<g id="#838383ff">
<path fill="#838383" opacity="1.00" d=" M 3.26 0.00 L 3.51 0.00 C 7.13 3.71 10.84 7.32 14.44 11.03 C 18.26 7.43 21.79 3.55 25.66 0.00 L 25.94 0.00 C 26.17 0.41 26.65 1.24 26.89 1.65 C 23.19 5.18 19.67 8.89 15.98 12.43 C 19.59 16.29 23.51 19.85 27.09 23.75 C 26.66 24.04 25.81 24.63 25.38 24.92 C 21.79 21.22 18.15 17.57 14.46 13.97 C 10.73 17.68 7.11 21.51 3.24 25.09 C 2.95 24.67 2.37 23.82 2.08 23.39 C 5.75 19.75 9.49 16.18 13.02 12.41 C 9.32 8.85 5.76 5.16 2.06 1.60 C 2.36 1.20 2.96 0.40 3.26 0.00 Z" />
</g>
</svg>
