<?xml version="1.0" encoding="UTF-8" ?>
<!DOCTYPE svg PUBLIC "-//W3C//DTD SVG 1.1//EN" "http://www.w3.org/Graphics/SVG/1.1/DTD/svg11.dtd">
<svg width="19pt" height="23pt" viewBox="0 0 19 23" version="1.1" xmlns="http://www.w3.org/2000/svg">
<g id="#7f7f7fff">
<path fill="#7f7f7f" opacity="1.00" d=" M 8.56 0.00 L 10.18 0.00 C 13.03 0.59 14.16 3.25 14.66 5.82 C 15.76 5.81 16.86 5.80 17.96 5.79 C 18.26 11.10 18.61 16.41 19.00 21.72 L 19.00 23.00 L 0.00 23.00 L 0.00 21.84 C 0.42 16.49 0.80 11.14 1.13 5.79 C 1.60 5.80 2.52 5.81 2.98 5.81 C 2.65 10.87 2.38 15.93 2.10 20.99 C 7.09 21.00 12.09 21.00 17.09 21.00 C 16.44 16.31 17.35 11.30 15.32 6.89 C 14.41 8.10 13.55 9.36 12.75 10.65 C 12.19 7.83 13.23 4.12 10.76 2.09 C 8.13 1.13 6.87 3.64 6.26 5.73 C 7.32 5.75 9.42 5.80 10.48 5.83 C 10.51 6.26 10.57 7.12 10.60 7.56 C 9.39 7.58 8.18 7.60 6.96 7.63 C 6.71 8.36 6.22 9.81 5.97 10.53 C 3.79 7.13 4.21 1.42 8.56 0.00 Z" />
</g>
</svg>
