<?xml version="1.0" encoding="UTF-8" ?>
<!DOCTYPE svg PUBLIC "-//W3C//DTD SVG 1.1//EN" "http://www.w3.org/Graphics/SVG/1.1/DTD/svg11.dtd">
<svg width="23pt" height="23pt" viewBox="0 0 23 23" version="1.1" xmlns="http://www.w3.org/2000/svg">
<g id="#737373d8">
<path fill="#737373" opacity="0.85" d=" M 8.22 0.00 L 11.71 0.00 C 18.80 1.31 21.93 10.33 17.67 16.00 C 19.37 17.90 21.23 19.63 23.00 21.45 L 23.00 23.00 L 21.44 23.00 C 19.61 21.22 17.90 19.33 15.96 17.67 C 10.31 21.94 1.32 18.78 0.00 11.72 L 0.00 8.13 C 0.67 4.01 4.08 0.59 8.22 0.00 M 8.18 2.15 C 3.19 3.14 0.16 9.51 3.21 13.80 C 6.21 19.46 15.71 18.16 17.15 11.93 C 19.02 6.61 13.59 0.81 8.18 2.15 Z" />
</g>
</svg>
